<mxfile host="app.diagrams.net" modified="2020-08-04T11:23:47.032Z" agent="5.0 (Macintosh; Intel Mac OS X 10_14_5) AppleWebKit/605.1.15 (KHTML, like Gecko) Version/12.1.1 Safari/605.1.15" etag="FLMbMTgQvuCrFIrMec3a" version="13.5.9" type="github" pages="3">
  <diagram id="C5RBs43oDa-KdzZeNtuy" name="Page-1">
    <mxGraphModel dx="696" dy="740" grid="1" gridSize="10" guides="1" tooltips="1" connect="1" arrows="1" fold="1" page="1" pageScale="1" pageWidth="827" pageHeight="1169" math="0" shadow="0">
      <root>
        <mxCell id="WIyWlLk6GJQsqaUBKTNV-0" />
        <mxCell id="WIyWlLk6GJQsqaUBKTNV-1" parent="WIyWlLk6GJQsqaUBKTNV-0" />
        <mxCell id="x_JjEuzMFlARTvp_zUCE-20" style="edgeStyle=orthogonalEdgeStyle;rounded=0;orthogonalLoop=1;jettySize=auto;html=1;entryX=0.5;entryY=0.188;entryDx=0;entryDy=0;entryPerimeter=0;strokeWidth=2;" edge="1" parent="WIyWlLk6GJQsqaUBKTNV-1" source="x_JjEuzMFlARTvp_zUCE-1" target="x_JjEuzMFlARTvp_zUCE-4">
          <mxGeometry relative="1" as="geometry">
            <Array as="points">
              <mxPoint x="444" y="165" />
            </Array>
          </mxGeometry>
        </mxCell>
        <mxCell id="x_JjEuzMFlARTvp_zUCE-1" value="" style="strokeWidth=2;html=1;shape=mxgraph.flowchart.terminator;whiteSpace=wrap;" vertex="1" parent="WIyWlLk6GJQsqaUBKTNV-1">
          <mxGeometry x="355" y="80" width="176" height="60" as="geometry" />
        </mxCell>
        <mxCell id="x_JjEuzMFlARTvp_zUCE-2" value="&lt;b&gt;&lt;font style=&quot;font-size: 19px&quot;&gt;Begin&lt;/font&gt;&lt;/b&gt;" style="text;html=1;strokeColor=none;fillColor=none;align=center;verticalAlign=middle;whiteSpace=wrap;rounded=0;" vertex="1" parent="WIyWlLk6GJQsqaUBKTNV-1">
          <mxGeometry x="390.5" y="85" width="107" height="50" as="geometry" />
        </mxCell>
        <mxCell id="RKnAnOasyHValAwsl9ko-9" style="edgeStyle=orthogonalEdgeStyle;rounded=0;orthogonalLoop=1;jettySize=auto;html=1;entryX=0.48;entryY=0;entryDx=0;entryDy=0;entryPerimeter=0;strokeWidth=2;" edge="1" parent="WIyWlLk6GJQsqaUBKTNV-1">
          <mxGeometry relative="1" as="geometry">
            <mxPoint x="443.1" y="280" as="sourcePoint" />
            <mxPoint x="442.5000000000001" y="340" as="targetPoint" />
            <Array as="points">
              <mxPoint x="443.6" y="310" />
            </Array>
          </mxGeometry>
        </mxCell>
        <mxCell id="x_JjEuzMFlARTvp_zUCE-4" value="" style="shape=manualInput;whiteSpace=wrap;html=1;strokeWidth=2;" vertex="1" parent="WIyWlLk6GJQsqaUBKTNV-1">
          <mxGeometry x="360" y="190" width="167" height="90" as="geometry" />
        </mxCell>
        <mxCell id="x_JjEuzMFlARTvp_zUCE-5" value="&lt;font size=&quot;4&quot;&gt;&lt;b&gt;score1&lt;br&gt;score2&lt;br&gt;score3&lt;br&gt;&lt;/b&gt;&lt;/font&gt;" style="text;html=1;strokeColor=none;fillColor=none;align=center;verticalAlign=middle;whiteSpace=wrap;rounded=0;" vertex="1" parent="WIyWlLk6GJQsqaUBKTNV-1">
          <mxGeometry x="432" y="230" width="40" height="20" as="geometry" />
        </mxCell>
        <mxCell id="RKnAnOasyHValAwsl9ko-3" style="edgeStyle=orthogonalEdgeStyle;rounded=0;orthogonalLoop=1;jettySize=auto;html=1;strokeWidth=2;" edge="1" parent="WIyWlLk6GJQsqaUBKTNV-1" source="x_JjEuzMFlARTvp_zUCE-6">
          <mxGeometry relative="1" as="geometry">
            <mxPoint x="613" y="620" as="targetPoint" />
          </mxGeometry>
        </mxCell>
        <mxCell id="RKnAnOasyHValAwsl9ko-5" style="edgeStyle=orthogonalEdgeStyle;rounded=0;orthogonalLoop=1;jettySize=auto;html=1;strokeWidth=2;" edge="1" parent="WIyWlLk6GJQsqaUBKTNV-1" source="x_JjEuzMFlARTvp_zUCE-6">
          <mxGeometry relative="1" as="geometry">
            <mxPoint x="445" y="810" as="targetPoint" />
          </mxGeometry>
        </mxCell>
        <mxCell id="x_JjEuzMFlARTvp_zUCE-6" value="" style="rhombus;whiteSpace=wrap;html=1;strokeWidth=2;" vertex="1" parent="WIyWlLk6GJQsqaUBKTNV-1">
          <mxGeometry x="370" y="520" width="150" height="80" as="geometry" />
        </mxCell>
        <mxCell id="x_JjEuzMFlARTvp_zUCE-7" value="&lt;font style=&quot;font-size: 16px&quot;&gt;&lt;b&gt;Score &amp;gt;= 95&lt;/b&gt;&lt;/font&gt;" style="text;html=1;strokeColor=none;fillColor=none;align=center;verticalAlign=middle;whiteSpace=wrap;rounded=0;" vertex="1" parent="WIyWlLk6GJQsqaUBKTNV-1">
          <mxGeometry x="398.5" y="550" width="100" height="20" as="geometry" />
        </mxCell>
        <mxCell id="x_JjEuzMFlARTvp_zUCE-24" value="&lt;font style=&quot;font-size: 16px&quot;&gt;&lt;b&gt;False&lt;/b&gt;&lt;/font&gt;" style="text;html=1;strokeColor=none;fillColor=none;align=center;verticalAlign=middle;whiteSpace=wrap;rounded=0;" vertex="1" parent="WIyWlLk6GJQsqaUBKTNV-1">
          <mxGeometry x="391.5" y="620" width="40" height="20" as="geometry" />
        </mxCell>
        <mxCell id="x_JjEuzMFlARTvp_zUCE-25" value="&lt;b&gt;&lt;font style=&quot;font-size: 17px&quot;&gt;True&lt;/font&gt;&lt;/b&gt;" style="text;html=1;strokeColor=none;fillColor=none;align=center;verticalAlign=middle;whiteSpace=wrap;rounded=0;" vertex="1" parent="WIyWlLk6GJQsqaUBKTNV-1">
          <mxGeometry x="543" y="540" width="40" height="20" as="geometry" />
        </mxCell>
        <mxCell id="RKnAnOasyHValAwsl9ko-6" style="edgeStyle=orthogonalEdgeStyle;rounded=0;orthogonalLoop=1;jettySize=auto;html=1;strokeWidth=2;" edge="1" parent="WIyWlLk6GJQsqaUBKTNV-1">
          <mxGeometry relative="1" as="geometry">
            <mxPoint x="453" y="770" as="targetPoint" />
            <mxPoint x="611.5" y="680" as="sourcePoint" />
            <Array as="points">
              <mxPoint x="612" y="720" />
              <mxPoint x="612" y="720" />
            </Array>
          </mxGeometry>
        </mxCell>
        <mxCell id="RKnAnOasyHValAwsl9ko-13" style="edgeStyle=orthogonalEdgeStyle;rounded=0;orthogonalLoop=1;jettySize=auto;html=1;exitX=0.5;exitY=1;exitDx=0;exitDy=0;entryX=0;entryY=0;entryDx=142.5975;entryDy=0;entryPerimeter=0;strokeWidth=2;" edge="1" parent="WIyWlLk6GJQsqaUBKTNV-1">
          <mxGeometry relative="1" as="geometry">
            <mxPoint x="445.5" y="400" as="sourcePoint" />
            <mxPoint x="449.5975000000001" y="420" as="targetPoint" />
          </mxGeometry>
        </mxCell>
        <mxCell id="RKnAnOasyHValAwsl9ko-8" value="&lt;b&gt;&lt;font style=&quot;font-size: 13px&quot;&gt;score_all = ( score1 + score2 + score3 ) / 3&lt;/font&gt;&lt;/b&gt;" style="rounded=0;whiteSpace=wrap;html=1;strokeWidth=2;" vertex="1" parent="WIyWlLk6GJQsqaUBKTNV-1">
          <mxGeometry x="308.5" y="340" width="280" height="60" as="geometry" />
        </mxCell>
        <mxCell id="RKnAnOasyHValAwsl9ko-12" style="edgeStyle=orthogonalEdgeStyle;rounded=0;orthogonalLoop=1;jettySize=auto;html=1;entryX=0.5;entryY=0;entryDx=0;entryDy=0;strokeWidth=2;" edge="1" parent="WIyWlLk6GJQsqaUBKTNV-1" source="RKnAnOasyHValAwsl9ko-10" target="x_JjEuzMFlARTvp_zUCE-6">
          <mxGeometry relative="1" as="geometry">
            <Array as="points">
              <mxPoint x="445" y="490" />
              <mxPoint x="445" y="490" />
            </Array>
          </mxGeometry>
        </mxCell>
        <mxCell id="RKnAnOasyHValAwsl9ko-10" value="&lt;b&gt;&lt;font style=&quot;font-size: 13px&quot;&gt;print(&#39; \n &amp;nbsp;The average score is : &#39; )&lt;/font&gt;&lt;/b&gt;" style="shape=display;whiteSpace=wrap;html=1;strokeWidth=2;" vertex="1" parent="WIyWlLk6GJQsqaUBKTNV-1">
          <mxGeometry x="310" y="420" width="255" height="67.11" as="geometry" />
        </mxCell>
        <mxCell id="RKnAnOasyHValAwsl9ko-15" value="&lt;b&gt;&lt;font style=&quot;font-size: 13px&quot;&gt;print(&quot;congratulation ! /n That is a great average !&quot;)&lt;/font&gt;&lt;/b&gt;" style="shape=display;whiteSpace=wrap;html=1;strokeWidth=2;" vertex="1" parent="WIyWlLk6GJQsqaUBKTNV-1">
          <mxGeometry x="490" y="610" width="270" height="90" as="geometry" />
        </mxCell>
        <mxCell id="RKnAnOasyHValAwsl9ko-16" value="&lt;b style=&quot;font-size: 19px&quot;&gt;End&lt;/b&gt;" style="strokeWidth=2;html=1;shape=mxgraph.flowchart.terminator;whiteSpace=wrap;" vertex="1" parent="WIyWlLk6GJQsqaUBKTNV-1">
          <mxGeometry x="365" y="812" width="160" height="60" as="geometry" />
        </mxCell>
      </root>
    </mxGraphModel>
  </diagram>
  <diagram id="mQqCrs-8me8M8jWKORuW" name="Page-2">
    <mxGraphModel dx="696" dy="740" grid="1" gridSize="10" guides="1" tooltips="1" connect="1" arrows="1" fold="1" page="1" pageScale="1" pageWidth="850" pageHeight="1100" math="0" shadow="0">
      <root>
        <mxCell id="R6x_LgGzcorfWUzKzGEH-0" />
        <mxCell id="R6x_LgGzcorfWUzKzGEH-1" parent="R6x_LgGzcorfWUzKzGEH-0" />
        <mxCell id="N8OBJ3EI5HRFs6kOl-kR-0" style="edgeStyle=orthogonalEdgeStyle;rounded=0;orthogonalLoop=1;jettySize=auto;html=1;entryX=0.5;entryY=0.188;entryDx=0;entryDy=0;entryPerimeter=0;strokeWidth=2;" edge="1" parent="R6x_LgGzcorfWUzKzGEH-1" source="N8OBJ3EI5HRFs6kOl-kR-1" target="N8OBJ3EI5HRFs6kOl-kR-4">
          <mxGeometry relative="1" as="geometry">
            <Array as="points">
              <mxPoint x="444" y="165" />
            </Array>
          </mxGeometry>
        </mxCell>
        <mxCell id="N8OBJ3EI5HRFs6kOl-kR-1" value="" style="strokeWidth=2;html=1;shape=mxgraph.flowchart.terminator;whiteSpace=wrap;" vertex="1" parent="R6x_LgGzcorfWUzKzGEH-1">
          <mxGeometry x="355" y="80" width="176" height="60" as="geometry" />
        </mxCell>
        <mxCell id="N8OBJ3EI5HRFs6kOl-kR-2" value="&lt;span style=&quot;font-size: 19px&quot;&gt;&lt;b&gt;start&lt;/b&gt;&lt;/span&gt;" style="text;html=1;strokeColor=none;fillColor=none;align=center;verticalAlign=middle;whiteSpace=wrap;rounded=0;" vertex="1" parent="R6x_LgGzcorfWUzKzGEH-1">
          <mxGeometry x="390.5" y="85" width="107" height="50" as="geometry" />
        </mxCell>
        <mxCell id="N8OBJ3EI5HRFs6kOl-kR-3" style="edgeStyle=orthogonalEdgeStyle;rounded=0;orthogonalLoop=1;jettySize=auto;html=1;entryX=0.48;entryY=0;entryDx=0;entryDy=0;entryPerimeter=0;strokeWidth=2;" edge="1" parent="R6x_LgGzcorfWUzKzGEH-1">
          <mxGeometry relative="1" as="geometry">
            <mxPoint x="443.0999999999999" y="280" as="sourcePoint" />
            <mxPoint x="442.5" y="340" as="targetPoint" />
            <Array as="points">
              <mxPoint x="443.6" y="310" />
            </Array>
          </mxGeometry>
        </mxCell>
        <mxCell id="N8OBJ3EI5HRFs6kOl-kR-4" value="" style="shape=manualInput;whiteSpace=wrap;html=1;strokeWidth=2;" vertex="1" parent="R6x_LgGzcorfWUzKzGEH-1">
          <mxGeometry x="390" y="151" width="107" height="59" as="geometry" />
        </mxCell>
        <mxCell id="N8OBJ3EI5HRFs6kOl-kR-5" value="&lt;font style=&quot;font-size: 18px&quot;&gt;&lt;b&gt;&lt;font style=&quot;font-size: 18px&quot;&gt;pay&lt;/font&gt;1&lt;/b&gt;&lt;/font&gt;" style="text;html=1;strokeColor=none;fillColor=none;align=center;verticalAlign=middle;whiteSpace=wrap;rounded=0;" vertex="1" parent="R6x_LgGzcorfWUzKzGEH-1">
          <mxGeometry x="430" y="178" width="40" height="20" as="geometry" />
        </mxCell>
        <mxCell id="snZjCzsU7em-AK1SMrPG-3" style="edgeStyle=orthogonalEdgeStyle;rounded=0;orthogonalLoop=1;jettySize=auto;html=1;strokeWidth=2;entryX=0.5;entryY=0;entryDx=0;entryDy=0;entryPerimeter=0;" edge="1" parent="R6x_LgGzcorfWUzKzGEH-1" source="N8OBJ3EI5HRFs6kOl-kR-8" target="snZjCzsU7em-AK1SMrPG-0">
          <mxGeometry relative="1" as="geometry">
            <mxPoint x="280" y="560" as="targetPoint" />
            <Array as="points">
              <mxPoint x="280" y="560" />
            </Array>
          </mxGeometry>
        </mxCell>
        <mxCell id="snZjCzsU7em-AK1SMrPG-4" style="edgeStyle=orthogonalEdgeStyle;rounded=0;orthogonalLoop=1;jettySize=auto;html=1;entryX=0.561;entryY=0.033;entryDx=0;entryDy=0;entryPerimeter=0;strokeWidth=2;" edge="1" parent="R6x_LgGzcorfWUzKzGEH-1" source="N8OBJ3EI5HRFs6kOl-kR-8" target="snZjCzsU7em-AK1SMrPG-1">
          <mxGeometry relative="1" as="geometry">
            <Array as="points">
              <mxPoint x="621" y="560" />
            </Array>
          </mxGeometry>
        </mxCell>
        <mxCell id="N8OBJ3EI5HRFs6kOl-kR-8" value="" style="rhombus;whiteSpace=wrap;html=1;strokeWidth=2;" vertex="1" parent="R6x_LgGzcorfWUzKzGEH-1">
          <mxGeometry x="370" y="520" width="150" height="80" as="geometry" />
        </mxCell>
        <mxCell id="N8OBJ3EI5HRFs6kOl-kR-9" value="&lt;font size=&quot;1&quot;&gt;&lt;b style=&quot;font-size: 15px&quot;&gt;if pay1 &amp;gt; 40 :&lt;/b&gt;&lt;/font&gt;" style="text;html=1;strokeColor=none;fillColor=none;align=center;verticalAlign=middle;whiteSpace=wrap;rounded=0;" vertex="1" parent="R6x_LgGzcorfWUzKzGEH-1">
          <mxGeometry x="398.5" y="550" width="100" height="20" as="geometry" />
        </mxCell>
        <mxCell id="N8OBJ3EI5HRFs6kOl-kR-13" style="edgeStyle=orthogonalEdgeStyle;rounded=0;orthogonalLoop=1;jettySize=auto;html=1;exitX=0.5;exitY=1;exitDx=0;exitDy=0;entryX=0;entryY=0;entryDx=142.5975;entryDy=0;entryPerimeter=0;strokeWidth=2;" edge="1" parent="R6x_LgGzcorfWUzKzGEH-1">
          <mxGeometry relative="1" as="geometry">
            <mxPoint x="439.5" y="400" as="sourcePoint" />
            <mxPoint x="443.5975000000001" y="420" as="targetPoint" />
          </mxGeometry>
        </mxCell>
        <mxCell id="N8OBJ3EI5HRFs6kOl-kR-14" value="&lt;b&gt;&lt;font style=&quot;font-size: 13px&quot;&gt;pay3 = (pay1 - 40) *1.5&lt;/font&gt;&lt;/b&gt;" style="rounded=0;whiteSpace=wrap;html=1;strokeWidth=2;" vertex="1" parent="R6x_LgGzcorfWUzKzGEH-1">
          <mxGeometry x="353.75" y="340" width="180.5" height="60" as="geometry" />
        </mxCell>
        <mxCell id="N8OBJ3EI5HRFs6kOl-kR-15" style="edgeStyle=orthogonalEdgeStyle;rounded=0;orthogonalLoop=1;jettySize=auto;html=1;entryX=0.5;entryY=0;entryDx=0;entryDy=0;strokeWidth=2;" edge="1" parent="R6x_LgGzcorfWUzKzGEH-1" target="N8OBJ3EI5HRFs6kOl-kR-8">
          <mxGeometry relative="1" as="geometry">
            <Array as="points">
              <mxPoint x="445" y="490" />
              <mxPoint x="445" y="490" />
            </Array>
            <mxPoint x="445" y="487.1099999999999" as="sourcePoint" />
          </mxGeometry>
        </mxCell>
        <mxCell id="N8OBJ3EI5HRFs6kOl-kR-19" value="" style="shape=manualInput;whiteSpace=wrap;html=1;strokeWidth=2;" vertex="1" parent="R6x_LgGzcorfWUzKzGEH-1">
          <mxGeometry x="390.5" y="224" width="107" height="60" as="geometry" />
        </mxCell>
        <mxCell id="N8OBJ3EI5HRFs6kOl-kR-20" value="&lt;font size=&quot;4&quot;&gt;&lt;b&gt;pay2&lt;/b&gt;&lt;/font&gt;" style="text;html=1;strokeColor=none;fillColor=none;align=center;verticalAlign=middle;whiteSpace=wrap;rounded=0;" vertex="1" parent="R6x_LgGzcorfWUzKzGEH-1">
          <mxGeometry x="430.5" y="249" width="40" height="20" as="geometry" />
        </mxCell>
        <mxCell id="N8OBJ3EI5HRFs6kOl-kR-23" value="&lt;b&gt;&lt;font style=&quot;font-size: 13px&quot;&gt;pay4 = &amp;nbsp;(40 * pay2)&lt;/font&gt;&lt;/b&gt;" style="rounded=0;whiteSpace=wrap;html=1;strokeWidth=2;" vertex="1" parent="R6x_LgGzcorfWUzKzGEH-1">
          <mxGeometry x="352.5" y="420" width="180.5" height="60" as="geometry" />
        </mxCell>
        <mxCell id="N8OBJ3EI5HRFs6kOl-kR-24" value="&lt;b&gt;&lt;font style=&quot;font-size: 16px&quot;&gt;True&lt;/font&gt;&lt;/b&gt;" style="text;html=1;strokeColor=none;fillColor=none;align=center;verticalAlign=middle;whiteSpace=wrap;rounded=0;" vertex="1" parent="R6x_LgGzcorfWUzKzGEH-1">
          <mxGeometry x="312.5" y="537" width="40" height="20" as="geometry" />
        </mxCell>
        <mxCell id="GQLja5FUrIi6zh0bSRcL-0" value="&lt;b&gt;&lt;font style=&quot;font-size: 19px&quot;&gt;fals&lt;/font&gt;&lt;/b&gt;" style="text;html=1;strokeColor=none;fillColor=none;align=center;verticalAlign=middle;whiteSpace=wrap;rounded=0;" vertex="1" parent="R6x_LgGzcorfWUzKzGEH-1">
          <mxGeometry x="550" y="537" width="40" height="20" as="geometry" />
        </mxCell>
        <mxCell id="snZjCzsU7em-AK1SMrPG-9" style="edgeStyle=orthogonalEdgeStyle;rounded=0;orthogonalLoop=1;jettySize=auto;html=1;entryX=0;entryY=0.5;entryDx=0;entryDy=0;entryPerimeter=0;strokeWidth=2;" edge="1" parent="R6x_LgGzcorfWUzKzGEH-1" source="snZjCzsU7em-AK1SMrPG-0" target="snZjCzsU7em-AK1SMrPG-8">
          <mxGeometry relative="1" as="geometry">
            <Array as="points">
              <mxPoint x="280" y="735" />
            </Array>
          </mxGeometry>
        </mxCell>
        <mxCell id="snZjCzsU7em-AK1SMrPG-0" value="print(&#39;The gross pay in: &#39;,pay3 * pay3 + pay4)" style="strokeWidth=2;html=1;shape=mxgraph.flowchart.display;whiteSpace=wrap;" vertex="1" parent="R6x_LgGzcorfWUzKzGEH-1">
          <mxGeometry x="190" y="601" width="180" height="60" as="geometry" />
        </mxCell>
        <mxCell id="snZjCzsU7em-AK1SMrPG-11" style="edgeStyle=orthogonalEdgeStyle;rounded=0;orthogonalLoop=1;jettySize=auto;html=1;entryX=1;entryY=0.5;entryDx=0;entryDy=0;entryPerimeter=0;strokeWidth=2;" edge="1" parent="R6x_LgGzcorfWUzKzGEH-1" source="snZjCzsU7em-AK1SMrPG-1" target="snZjCzsU7em-AK1SMrPG-8">
          <mxGeometry relative="1" as="geometry">
            <Array as="points">
              <mxPoint x="620" y="735" />
            </Array>
          </mxGeometry>
        </mxCell>
        <mxCell id="snZjCzsU7em-AK1SMrPG-1" value="print(&#39;The gross pay in: &#39;,pay1 *pay3 )" style="strokeWidth=2;html=1;shape=mxgraph.flowchart.display;whiteSpace=wrap;" vertex="1" parent="R6x_LgGzcorfWUzKzGEH-1">
          <mxGeometry x="520" y="602" width="180" height="60" as="geometry" />
        </mxCell>
        <mxCell id="snZjCzsU7em-AK1SMrPG-6" value="" style="endArrow=classic;html=1;strokeWidth=2;entryX=0.5;entryY=0.233;entryDx=0;entryDy=0;entryPerimeter=0;exitX=0.5;exitY=1;exitDx=0;exitDy=0;" edge="1" parent="R6x_LgGzcorfWUzKzGEH-1" source="N8OBJ3EI5HRFs6kOl-kR-4" target="N8OBJ3EI5HRFs6kOl-kR-19">
          <mxGeometry width="50" height="50" relative="1" as="geometry">
            <mxPoint x="410" y="260" as="sourcePoint" />
            <mxPoint x="460" y="210" as="targetPoint" />
          </mxGeometry>
        </mxCell>
        <mxCell id="snZjCzsU7em-AK1SMrPG-12" style="edgeStyle=orthogonalEdgeStyle;rounded=0;orthogonalLoop=1;jettySize=auto;html=1;strokeWidth=2;" edge="1" parent="R6x_LgGzcorfWUzKzGEH-1" source="snZjCzsU7em-AK1SMrPG-8">
          <mxGeometry relative="1" as="geometry">
            <mxPoint x="448.5" y="800" as="targetPoint" />
          </mxGeometry>
        </mxCell>
        <mxCell id="snZjCzsU7em-AK1SMrPG-8" value="" style="verticalLabelPosition=bottom;verticalAlign=top;html=1;shape=mxgraph.flowchart.on-page_reference;strokeWidth=2;" vertex="1" parent="R6x_LgGzcorfWUzKzGEH-1">
          <mxGeometry x="433.5" y="720" width="30" height="30" as="geometry" />
        </mxCell>
        <mxCell id="snZjCzsU7em-AK1SMrPG-13" value="End" style="strokeWidth=2;html=1;shape=mxgraph.flowchart.terminator;whiteSpace=wrap;" vertex="1" parent="R6x_LgGzcorfWUzKzGEH-1">
          <mxGeometry x="362.5" y="800" width="176" height="60" as="geometry" />
        </mxCell>
      </root>
    </mxGraphModel>
  </diagram>
  <diagram id="Y66E1ZRNUozTsHW1rqs-" name="Page-3">
    <mxGraphModel dx="2694" dy="1649" grid="1" gridSize="10" guides="1" tooltips="1" connect="1" arrows="1" fold="1" page="1" pageScale="1" pageWidth="850" pageHeight="1100" math="0" shadow="0">
      <root>
        <mxCell id="j2KjEuufWvslkebFtdFo-0" />
        <mxCell id="j2KjEuufWvslkebFtdFo-1" parent="j2KjEuufWvslkebFtdFo-0" />
        <mxCell id="j2KjEuufWvslkebFtdFo-3" value="" style="strokeWidth=2;html=1;shape=mxgraph.flowchart.terminator;whiteSpace=wrap;" vertex="1" parent="j2KjEuufWvslkebFtdFo-1">
          <mxGeometry x="344" y="10" width="176" height="60" as="geometry" />
        </mxCell>
        <mxCell id="j2KjEuufWvslkebFtdFo-4" value="&lt;span style=&quot;font-size: 19px&quot;&gt;&lt;b&gt;start&lt;/b&gt;&lt;/span&gt;" style="text;html=1;strokeColor=none;fillColor=none;align=center;verticalAlign=middle;whiteSpace=wrap;rounded=0;" vertex="1" parent="j2KjEuufWvslkebFtdFo-1">
          <mxGeometry x="379.5" y="15" width="107" height="50" as="geometry" />
        </mxCell>
        <mxCell id="j2KjEuufWvslkebFtdFo-39" value="&lt;div style=&quot;font-family: &amp;#34;menlo&amp;#34; , &amp;#34;monaco&amp;#34; , &amp;#34;courier new&amp;#34; , monospace ; line-height: 18px&quot;&gt;&lt;span style=&quot;background-color: rgb(255 , 255 , 255)&quot;&gt;&lt;font color=&quot;#330000&quot;&gt;print(&#39;Please select operation&#39;)&lt;/font&gt;&lt;/span&gt;&lt;/div&gt;" style="strokeWidth=2;html=1;shape=mxgraph.flowchart.display;whiteSpace=wrap;" vertex="1" parent="j2KjEuufWvslkebFtdFo-1">
          <mxGeometry x="320" y="98" width="209" height="60" as="geometry" />
        </mxCell>
        <mxCell id="j2KjEuufWvslkebFtdFo-40" value="&lt;div style=&quot;font-family: &amp;#34;menlo&amp;#34; , &amp;#34;monaco&amp;#34; , &amp;#34;courier new&amp;#34; , monospace ; line-height: 18px&quot;&gt;&lt;span style=&quot;background-color: rgb(255 , 255 , 255)&quot;&gt;print&lt;span&gt;(&lt;/span&gt;&#39;1.add&#39;&lt;span&gt;)&lt;/span&gt;&lt;/span&gt;&lt;br&gt;&lt;/div&gt;" style="strokeWidth=2;html=1;shape=mxgraph.flowchart.display;whiteSpace=wrap;" vertex="1" parent="j2KjEuufWvslkebFtdFo-1">
          <mxGeometry x="321" y="183" width="209" height="60" as="geometry" />
        </mxCell>
        <mxCell id="j2KjEuufWvslkebFtdFo-41" value="&lt;div style=&quot;font-family: &amp;#34;menlo&amp;#34; , &amp;#34;monaco&amp;#34; , &amp;#34;courier new&amp;#34; , monospace ; line-height: 18px&quot;&gt;&lt;span style=&quot;background-color: rgb(255 , 255 , 255)&quot;&gt;print&lt;span&gt;(&lt;/span&gt;&#39;2.Subtract&#39;&lt;span&gt;)&lt;/span&gt;&lt;/span&gt;&lt;br&gt;&lt;/div&gt;" style="strokeWidth=2;html=1;shape=mxgraph.flowchart.display;whiteSpace=wrap;" vertex="1" parent="j2KjEuufWvslkebFtdFo-1">
          <mxGeometry x="320" y="269" width="209" height="60" as="geometry" />
        </mxCell>
        <mxCell id="j2KjEuufWvslkebFtdFo-42" value="&lt;div style=&quot;font-family: &amp;#34;menlo&amp;#34; , &amp;#34;monaco&amp;#34; , &amp;#34;courier new&amp;#34; , monospace ; line-height: 18px&quot;&gt;&lt;span style=&quot;background-color: rgb(255 , 255 , 255)&quot;&gt;&amp;nbsp;print(&#39;3.Multiply&#39;)&lt;/span&gt;&lt;br&gt;&lt;/div&gt;" style="strokeWidth=2;html=1;shape=mxgraph.flowchart.display;whiteSpace=wrap;" vertex="1" parent="j2KjEuufWvslkebFtdFo-1">
          <mxGeometry x="320" y="355" width="209" height="60" as="geometry" />
        </mxCell>
        <mxCell id="j2KjEuufWvslkebFtdFo-43" value="&lt;div style=&quot;font-family: &amp;#34;menlo&amp;#34; , &amp;#34;monaco&amp;#34; , &amp;#34;courier new&amp;#34; , monospace ; line-height: 18px&quot;&gt;&lt;span style=&quot;background-color: rgb(255 , 255 , 255)&quot;&gt;print&lt;span&gt;(&lt;/span&gt;&#39;4.Divide&#39;&lt;span&gt;)&lt;/span&gt;&lt;/span&gt;&lt;br&gt;&lt;/div&gt;" style="strokeWidth=2;html=1;shape=mxgraph.flowchart.display;whiteSpace=wrap;" vertex="1" parent="j2KjEuufWvslkebFtdFo-1">
          <mxGeometry x="320" y="440" width="209" height="60" as="geometry" />
        </mxCell>
        <mxCell id="5z3gK42f8l5ofVHX0d_l-9" style="edgeStyle=orthogonalEdgeStyle;rounded=0;orthogonalLoop=1;jettySize=auto;html=1;entryX=0.502;entryY=0.13;entryDx=0;entryDy=0;entryPerimeter=0;strokeWidth=2;" edge="1" parent="j2KjEuufWvslkebFtdFo-1">
          <mxGeometry relative="1" as="geometry">
            <mxPoint x="434.08333333333326" y="620" as="sourcePoint" />
            <mxPoint x="434.0795000000003" y="652.9999999999998" as="targetPoint" />
            <Array as="points">
              <mxPoint x="434" y="640" />
            </Array>
          </mxGeometry>
        </mxCell>
        <mxCell id="j2KjEuufWvslkebFtdFo-56" value="&lt;div style=&quot;font-family: &amp;#34;menlo&amp;#34; , &amp;#34;monaco&amp;#34; , &amp;#34;courier new&amp;#34; , monospace ; line-height: 18px&quot;&gt;&lt;span style=&quot;background-color: rgb(255 , 255 , 255)&quot;&gt;operation = int(input(&#39;Select opration form 1, 2, 3, 4 : &#39;))&lt;/span&gt;&lt;/div&gt;" style="html=1;strokeWidth=2;shape=manualInput;whiteSpace=wrap;rounded=1;size=26;arcSize=11;" vertex="1" parent="j2KjEuufWvslkebFtdFo-1">
          <mxGeometry x="291.75" y="520" width="265.5" height="100" as="geometry" />
        </mxCell>
        <mxCell id="5z3gK42f8l5ofVHX0d_l-6" style="edgeStyle=orthogonalEdgeStyle;rounded=0;orthogonalLoop=1;jettySize=auto;html=1;entryX=0.495;entryY=0.138;entryDx=0;entryDy=0;entryPerimeter=0;strokeWidth=2;" edge="1" parent="j2KjEuufWvslkebFtdFo-1">
          <mxGeometry relative="1" as="geometry">
            <mxPoint x="434.0833333333335" y="740" as="sourcePoint" />
            <mxPoint x="434.0587499999997" y="783.8" as="targetPoint" />
            <Array as="points">
              <mxPoint x="435" y="760" />
            </Array>
          </mxGeometry>
        </mxCell>
        <mxCell id="j2KjEuufWvslkebFtdFo-57" value="&lt;div style=&quot;font-family: &amp;#34;menlo&amp;#34; , &amp;#34;monaco&amp;#34; , &amp;#34;courier new&amp;#34; , monospace ; line-height: 18px&quot;&gt;&lt;div style=&quot;font-family: &amp;#34;menlo&amp;#34; , &amp;#34;monaco&amp;#34; , &amp;#34;courier new&amp;#34; , monospace ; line-height: 18px&quot;&gt;&lt;span style=&quot;background-color: rgb(255 , 255 , 255)&quot;&gt;n = int(input(&#39;Enter first number :&#39;))&lt;/span&gt;&lt;/div&gt;&lt;/div&gt;" style="html=1;strokeWidth=2;shape=manualInput;whiteSpace=wrap;rounded=1;size=26;arcSize=11;" vertex="1" parent="j2KjEuufWvslkebFtdFo-1">
          <mxGeometry x="280.88" y="640" width="287.25" height="100" as="geometry" />
        </mxCell>
        <mxCell id="5z3gK42f8l5ofVHX0d_l-4" value="" style="edgeStyle=orthogonalEdgeStyle;rounded=0;orthogonalLoop=1;jettySize=auto;html=1;strokeWidth=2;" edge="1" parent="j2KjEuufWvslkebFtdFo-1" source="j2KjEuufWvslkebFtdFo-60" target="j2KjEuufWvslkebFtdFo-61">
          <mxGeometry relative="1" as="geometry">
            <Array as="points">
              <mxPoint x="432" y="880" />
              <mxPoint x="432" y="880" />
            </Array>
          </mxGeometry>
        </mxCell>
        <mxCell id="j2KjEuufWvslkebFtdFo-60" value="&lt;div style=&quot;font-family: &amp;#34;menlo&amp;#34; , &amp;#34;monaco&amp;#34; , &amp;#34;courier new&amp;#34; , monospace ; line-height: 18px&quot;&gt;&lt;div style=&quot;font-family: &amp;#34;menlo&amp;#34; , &amp;#34;monaco&amp;#34; , &amp;#34;courier new&amp;#34; , monospace ; line-height: 18px&quot;&gt;&lt;div style=&quot;font-family: &amp;#34;menlo&amp;#34; , &amp;#34;monaco&amp;#34; , &amp;#34;courier new&amp;#34; , monospace ; line-height: 18px&quot;&gt;&lt;span style=&quot;background-color: rgb(255 , 255 , 255)&quot;&gt;m = int(input(&#39;Enter second number :&#39;))&lt;/span&gt;&lt;/div&gt;&lt;/div&gt;&lt;/div&gt;" style="html=1;strokeWidth=2;shape=manualInput;whiteSpace=wrap;rounded=1;size=26;arcSize=11;" vertex="1" parent="j2KjEuufWvslkebFtdFo-1">
          <mxGeometry x="281.87" y="770" width="287.25" height="100" as="geometry" />
        </mxCell>
        <mxCell id="j2KjEuufWvslkebFtdFo-69" style="edgeStyle=orthogonalEdgeStyle;rounded=0;orthogonalLoop=1;jettySize=auto;html=1;strokeWidth=2;entryX=0.577;entryY=-0.029;entryDx=0;entryDy=0;entryPerimeter=0;" edge="1" parent="j2KjEuufWvslkebFtdFo-1" source="j2KjEuufWvslkebFtdFo-61" target="j2KjEuufWvslkebFtdFo-62">
          <mxGeometry relative="1" as="geometry">
            <mxPoint x="660" y="960" as="targetPoint" />
            <Array as="points">
              <mxPoint x="644" y="960" />
            </Array>
          </mxGeometry>
        </mxCell>
        <mxCell id="j2KjEuufWvslkebFtdFo-70" style="edgeStyle=orthogonalEdgeStyle;rounded=0;orthogonalLoop=1;jettySize=auto;html=1;entryX=0.5;entryY=0;entryDx=0;entryDy=0;strokeWidth=2;" edge="1" parent="j2KjEuufWvslkebFtdFo-1" source="j2KjEuufWvslkebFtdFo-61" target="j2KjEuufWvslkebFtdFo-63">
          <mxGeometry relative="1" as="geometry">
            <Array as="points">
              <mxPoint x="432" y="1030" />
              <mxPoint x="285" y="1030" />
            </Array>
          </mxGeometry>
        </mxCell>
        <mxCell id="j2KjEuufWvslkebFtdFo-61" value="&lt;div style=&quot;font-family: &amp;#34;menlo&amp;#34; , &amp;#34;monaco&amp;#34; , &amp;#34;courier new&amp;#34; , monospace ; line-height: 18px&quot;&gt;&lt;span style=&quot;background-color: rgb(255 , 255 , 255)&quot;&gt;operation == 1&lt;/span&gt;&lt;/div&gt;" style="rhombus;whiteSpace=wrap;html=1;strokeWidth=2;" vertex="1" parent="j2KjEuufWvslkebFtdFo-1">
          <mxGeometry x="358.38" y="900" width="147.25" height="120" as="geometry" />
        </mxCell>
        <mxCell id="j2KjEuufWvslkebFtdFo-76" style="edgeStyle=orthogonalEdgeStyle;rounded=0;orthogonalLoop=1;jettySize=auto;html=1;strokeWidth=2;entryX=1;entryY=0.5;entryDx=0;entryDy=0;" edge="1" parent="j2KjEuufWvslkebFtdFo-1" source="j2KjEuufWvslkebFtdFo-62" target="5z3gK42f8l5ofVHX0d_l-18">
          <mxGeometry relative="1" as="geometry">
            <mxPoint x="30" y="1600" as="targetPoint" />
            <Array as="points">
              <mxPoint x="630" y="1600" />
            </Array>
          </mxGeometry>
        </mxCell>
        <mxCell id="j2KjEuufWvslkebFtdFo-62" value="&lt;div style=&quot;font-family: &amp;#34;menlo&amp;#34; , &amp;#34;monaco&amp;#34; , &amp;#34;courier new&amp;#34; , monospace ; line-height: 18px&quot;&gt;&lt;span style=&quot;background-color: rgb(255 , 255 , 255)&quot;&gt;print( n,&#39;+&#39;,m,&#39;=&#39;,n + m )&lt;/span&gt;&lt;/div&gt;" style="strokeWidth=2;html=1;shape=mxgraph.flowchart.display;whiteSpace=wrap;" vertex="1" parent="j2KjEuufWvslkebFtdFo-1">
          <mxGeometry x="505.63" y="1000" width="240" height="70" as="geometry" />
        </mxCell>
        <mxCell id="j2KjEuufWvslkebFtdFo-71" style="edgeStyle=orthogonalEdgeStyle;rounded=0;orthogonalLoop=1;jettySize=auto;html=1;exitX=1;exitY=0.5;exitDx=0;exitDy=0;entryX=0.569;entryY=0.014;entryDx=0;entryDy=0;entryPerimeter=0;strokeWidth=2;" edge="1" parent="j2KjEuufWvslkebFtdFo-1" source="j2KjEuufWvslkebFtdFo-63" target="j2KjEuufWvslkebFtdFo-66">
          <mxGeometry relative="1" as="geometry" />
        </mxCell>
        <mxCell id="j2KjEuufWvslkebFtdFo-72" style="edgeStyle=orthogonalEdgeStyle;rounded=0;orthogonalLoop=1;jettySize=auto;html=1;entryX=0.5;entryY=0;entryDx=0;entryDy=0;strokeWidth=2;" edge="1" parent="j2KjEuufWvslkebFtdFo-1" source="j2KjEuufWvslkebFtdFo-63" target="j2KjEuufWvslkebFtdFo-64">
          <mxGeometry relative="1" as="geometry">
            <Array as="points">
              <mxPoint x="138" y="1110" />
            </Array>
          </mxGeometry>
        </mxCell>
        <mxCell id="j2KjEuufWvslkebFtdFo-63" value="&lt;div style=&quot;font-family: &amp;#34;menlo&amp;#34; , &amp;#34;monaco&amp;#34; , &amp;#34;courier new&amp;#34; , monospace ; line-height: 18px&quot;&gt;&lt;span style=&quot;background-color: rgb(255 , 255 , 255)&quot;&gt;operation == 2&lt;/span&gt;&lt;/div&gt;" style="rhombus;whiteSpace=wrap;html=1;strokeWidth=2;" vertex="1" parent="j2KjEuufWvslkebFtdFo-1">
          <mxGeometry x="211.13" y="1050" width="147.25" height="120" as="geometry" />
        </mxCell>
        <mxCell id="j2KjEuufWvslkebFtdFo-73" style="edgeStyle=orthogonalEdgeStyle;rounded=0;orthogonalLoop=1;jettySize=auto;html=1;entryX=0.5;entryY=0;entryDx=0;entryDy=0;entryPerimeter=0;strokeWidth=2;" edge="1" parent="j2KjEuufWvslkebFtdFo-1" source="j2KjEuufWvslkebFtdFo-64" target="j2KjEuufWvslkebFtdFo-67">
          <mxGeometry relative="1" as="geometry">
            <Array as="points">
              <mxPoint x="331" y="1250" />
            </Array>
          </mxGeometry>
        </mxCell>
        <mxCell id="j2KjEuufWvslkebFtdFo-74" style="edgeStyle=orthogonalEdgeStyle;rounded=0;orthogonalLoop=1;jettySize=auto;html=1;entryX=0.5;entryY=0;entryDx=0;entryDy=0;strokeWidth=2;exitX=0.5;exitY=1;exitDx=0;exitDy=0;entryPerimeter=0;" edge="1" parent="j2KjEuufWvslkebFtdFo-1" source="j2KjEuufWvslkebFtdFo-64" target="j2KjEuufWvslkebFtdFo-68">
          <mxGeometry relative="1" as="geometry">
            <mxPoint x="-9.74499999999989" y="1330" as="targetPoint" />
            <Array as="points">
              <mxPoint x="138" y="1310" />
              <mxPoint x="-50" y="1310" />
              <mxPoint x="-50" y="1440" />
            </Array>
          </mxGeometry>
        </mxCell>
        <mxCell id="j2KjEuufWvslkebFtdFo-64" value="&lt;div style=&quot;font-family: &amp;#34;menlo&amp;#34; , &amp;#34;monaco&amp;#34; , &amp;#34;courier new&amp;#34; , monospace ; line-height: 18px&quot;&gt;&lt;span style=&quot;background-color: rgb(255 , 255 , 255)&quot;&gt;operation == 3&lt;/span&gt;&lt;/div&gt;" style="rhombus;whiteSpace=wrap;html=1;strokeWidth=2;" vertex="1" parent="j2KjEuufWvslkebFtdFo-1">
          <mxGeometry x="63.879999999999995" y="1188" width="147.25" height="120" as="geometry" />
        </mxCell>
        <mxCell id="j2KjEuufWvslkebFtdFo-66" value="&lt;div style=&quot;font-family: &amp;#34;menlo&amp;#34; , &amp;#34;monaco&amp;#34; , &amp;#34;courier new&amp;#34; , monospace ; line-height: 18px&quot;&gt;&lt;span style=&quot;background-color: rgb(255 , 255 , 255)&quot;&gt;print( n,&#39;-&#39;,m,&#39;=&#39;,n - m )&lt;/span&gt;&lt;/div&gt;" style="strokeWidth=2;html=1;shape=mxgraph.flowchart.display;whiteSpace=wrap;" vertex="1" parent="j2KjEuufWvslkebFtdFo-1">
          <mxGeometry x="358.38" y="1160" width="240" height="70" as="geometry" />
        </mxCell>
        <mxCell id="j2KjEuufWvslkebFtdFo-67" value="&lt;div style=&quot;font-family: &amp;#34;menlo&amp;#34; , &amp;#34;monaco&amp;#34; , &amp;#34;courier new&amp;#34; , monospace ; line-height: 18px&quot;&gt;&lt;span style=&quot;background-color: rgb(255 , 255 , 255)&quot;&gt;print( n,&#39;*&#39;,m,&#39;=&#39;,n * m )&lt;/span&gt;&lt;/div&gt;" style="strokeWidth=2;html=1;shape=mxgraph.flowchart.display;whiteSpace=wrap;" vertex="1" parent="j2KjEuufWvslkebFtdFo-1">
          <mxGeometry x="211.13" y="1290" width="240" height="70" as="geometry" />
        </mxCell>
        <mxCell id="5z3gK42f8l5ofVHX0d_l-23" style="edgeStyle=orthogonalEdgeStyle;rounded=0;orthogonalLoop=1;jettySize=auto;html=1;entryX=0.5;entryY=0;entryDx=0;entryDy=0;strokeWidth=2;" edge="1" parent="j2KjEuufWvslkebFtdFo-1" source="j2KjEuufWvslkebFtdFo-68" target="5z3gK42f8l5ofVHX0d_l-18">
          <mxGeometry relative="1" as="geometry" />
        </mxCell>
        <mxCell id="j2KjEuufWvslkebFtdFo-68" value="&lt;div style=&quot;font-family: &amp;#34;menlo&amp;#34; , &amp;#34;monaco&amp;#34; , &amp;#34;courier new&amp;#34; , monospace ; line-height: 18px&quot;&gt;&lt;span style=&quot;background-color: rgb(255 , 255 , 255)&quot;&gt;print( n,&#39;/&#39;,m,&#39;=&#39;,n / m )&lt;/span&gt;&lt;/div&gt;" style="strokeWidth=2;html=1;shape=mxgraph.flowchart.display;whiteSpace=wrap;" vertex="1" parent="j2KjEuufWvslkebFtdFo-1">
          <mxGeometry x="-170" y="1470" width="240" height="70" as="geometry" />
        </mxCell>
        <mxCell id="j2KjEuufWvslkebFtdFo-81" value="" style="endArrow=none;html=1;strokeWidth=2;" edge="1" parent="j2KjEuufWvslkebFtdFo-1">
          <mxGeometry width="50" height="50" relative="1" as="geometry">
            <mxPoint x="492" y="1230" as="sourcePoint" />
            <mxPoint x="492" y="1600" as="targetPoint" />
          </mxGeometry>
        </mxCell>
        <mxCell id="j2KjEuufWvslkebFtdFo-82" value="" style="endArrow=none;html=1;strokeWidth=2;" edge="1" parent="j2KjEuufWvslkebFtdFo-1">
          <mxGeometry width="50" height="50" relative="1" as="geometry">
            <mxPoint x="333" y="1360" as="sourcePoint" />
            <mxPoint x="333" y="1600" as="targetPoint" />
          </mxGeometry>
        </mxCell>
        <mxCell id="dX-YgTYRpSNsy8e4ZLoD-0" value="&lt;b style=&quot;color: rgb(0, 0, 0); font-family: helvetica; font-size: 12px; font-style: normal; letter-spacing: normal; text-align: center; text-indent: 0px; text-transform: none; word-spacing: 0px; text-decoration: none;&quot;&gt;&lt;font style=&quot;font-size: 16px&quot;&gt;True&lt;/font&gt;&lt;/b&gt;" style="text;whiteSpace=wrap;html=1;" vertex="1" parent="j2KjEuufWvslkebFtdFo-1">
          <mxGeometry x="550" y="930" width="60" height="30" as="geometry" />
        </mxCell>
        <mxCell id="dX-YgTYRpSNsy8e4ZLoD-1" value="&lt;b style=&quot;color: rgb(0, 0, 0); font-family: helvetica; font-size: 12px; font-style: normal; letter-spacing: normal; text-align: center; text-indent: 0px; text-transform: none; word-spacing: 0px; text-decoration: none;&quot;&gt;&lt;font style=&quot;font-size: 16px&quot;&gt;True&lt;/font&gt;&lt;/b&gt;" style="text;whiteSpace=wrap;html=1;" vertex="1" parent="j2KjEuufWvslkebFtdFo-1">
          <mxGeometry x="394.5" y="1080" width="60" height="30" as="geometry" />
        </mxCell>
        <mxCell id="dX-YgTYRpSNsy8e4ZLoD-2" value="&lt;b style=&quot;color: rgb(0, 0, 0); font-family: helvetica; font-size: 12px; font-style: normal; letter-spacing: normal; text-align: center; text-indent: 0px; text-transform: none; word-spacing: 0px; text-decoration: none;&quot;&gt;&lt;font style=&quot;font-size: 16px&quot;&gt;True&lt;/font&gt;&lt;/b&gt;" style="text;whiteSpace=wrap;html=1;" vertex="1" parent="j2KjEuufWvslkebFtdFo-1">
          <mxGeometry x="243.88" y="1220" width="60" height="30" as="geometry" />
        </mxCell>
        <mxCell id="5z3gK42f8l5ofVHX0d_l-0" value="&lt;b style=&quot;font-family: &amp;#34;helvetica&amp;#34; ; text-align: center&quot;&gt;&lt;font style=&quot;font-size: 19px&quot;&gt;false&lt;/font&gt;&lt;/b&gt;" style="text;whiteSpace=wrap;html=1;" vertex="1" parent="j2KjEuufWvslkebFtdFo-1">
          <mxGeometry x="344" y="1000" width="60" height="30" as="geometry" />
        </mxCell>
        <mxCell id="5z3gK42f8l5ofVHX0d_l-1" value="&lt;b style=&quot;font-family: &amp;#34;helvetica&amp;#34; ; text-align: center&quot;&gt;&lt;font style=&quot;font-size: 19px&quot;&gt;false&lt;/font&gt;&lt;/b&gt;" style="text;whiteSpace=wrap;html=1;" vertex="1" parent="j2KjEuufWvslkebFtdFo-1">
          <mxGeometry x="155.88" y="1080" width="60" height="30" as="geometry" />
        </mxCell>
        <mxCell id="5z3gK42f8l5ofVHX0d_l-2" value="&lt;b style=&quot;color: rgb(0 , 0 , 0) ; font-family: &amp;#34;helvetica&amp;#34; ; font-size: 12px ; font-style: normal ; letter-spacing: normal ; text-align: center ; text-indent: 0px ; text-transform: none ; word-spacing: 0px ; text-decoration: none&quot;&gt;&lt;font style=&quot;font-size: 19px&quot;&gt;false&lt;/font&gt;&lt;/b&gt;" style="text;whiteSpace=wrap;html=1;" vertex="1" parent="j2KjEuufWvslkebFtdFo-1">
          <mxGeometry x="-4.440892098500626e-15" y="1278" width="60" height="30" as="geometry" />
        </mxCell>
        <mxCell id="5z3gK42f8l5ofVHX0d_l-10" value="" style="endArrow=classic;html=1;strokeWidth=2;" edge="1" parent="j2KjEuufWvslkebFtdFo-1">
          <mxGeometry width="50" height="50" relative="1" as="geometry">
            <mxPoint x="432.58" y="500" as="sourcePoint" />
            <mxPoint x="432.58" y="530" as="targetPoint" />
          </mxGeometry>
        </mxCell>
        <mxCell id="5z3gK42f8l5ofVHX0d_l-12" value="" style="endArrow=classic;html=1;strokeWidth=2;" edge="1" parent="j2KjEuufWvslkebFtdFo-1">
          <mxGeometry width="50" height="50" relative="1" as="geometry">
            <mxPoint x="433" y="330" as="sourcePoint" />
            <mxPoint x="432.58" y="356" as="targetPoint" />
          </mxGeometry>
        </mxCell>
        <mxCell id="5z3gK42f8l5ofVHX0d_l-14" value="" style="endArrow=classic;html=1;strokeWidth=2;" edge="1" parent="j2KjEuufWvslkebFtdFo-1">
          <mxGeometry width="50" height="50" relative="1" as="geometry">
            <mxPoint x="432.01" y="413.9999999999999" as="sourcePoint" />
            <mxPoint x="431.59000000000015" y="440" as="targetPoint" />
          </mxGeometry>
        </mxCell>
        <mxCell id="5z3gK42f8l5ofVHX0d_l-15" value="" style="endArrow=classic;html=1;strokeWidth=2;" edge="1" parent="j2KjEuufWvslkebFtdFo-1">
          <mxGeometry width="50" height="50" relative="1" as="geometry">
            <mxPoint x="432" y="242.9999999999999" as="sourcePoint" />
            <mxPoint x="431.58000000000015" y="269" as="targetPoint" />
          </mxGeometry>
        </mxCell>
        <mxCell id="5z3gK42f8l5ofVHX0d_l-16" value="" style="endArrow=classic;html=1;strokeWidth=2;" edge="1" parent="j2KjEuufWvslkebFtdFo-1">
          <mxGeometry width="50" height="50" relative="1" as="geometry">
            <mxPoint x="432" y="156.9999999999999" as="sourcePoint" />
            <mxPoint x="431.58000000000015" y="183" as="targetPoint" />
          </mxGeometry>
        </mxCell>
        <mxCell id="5z3gK42f8l5ofVHX0d_l-17" value="" style="endArrow=classic;html=1;strokeWidth=2;" edge="1" parent="j2KjEuufWvslkebFtdFo-1">
          <mxGeometry width="50" height="50" relative="1" as="geometry">
            <mxPoint x="432.01" y="71.99999999999989" as="sourcePoint" />
            <mxPoint x="431.59000000000015" y="98" as="targetPoint" />
          </mxGeometry>
        </mxCell>
        <mxCell id="5z3gK42f8l5ofVHX0d_l-21" style="edgeStyle=orthogonalEdgeStyle;rounded=0;orthogonalLoop=1;jettySize=auto;html=1;entryX=0.5;entryY=0;entryDx=0;entryDy=0;entryPerimeter=0;strokeWidth=2;" edge="1" parent="j2KjEuufWvslkebFtdFo-1" source="5z3gK42f8l5ofVHX0d_l-18" target="5z3gK42f8l5ofVHX0d_l-20">
          <mxGeometry relative="1" as="geometry" />
        </mxCell>
        <mxCell id="5z3gK42f8l5ofVHX0d_l-18" value="" style="ellipse;whiteSpace=wrap;html=1;aspect=fixed;strokeWidth=2;" vertex="1" parent="j2KjEuufWvslkebFtdFo-1">
          <mxGeometry x="-80" y="1590" width="20" height="20" as="geometry" />
        </mxCell>
        <mxCell id="5z3gK42f8l5ofVHX0d_l-20" value="END" style="strokeWidth=2;html=1;shape=mxgraph.flowchart.terminator;whiteSpace=wrap;" vertex="1" parent="j2KjEuufWvslkebFtdFo-1">
          <mxGeometry x="-120" y="1640" width="100" height="50" as="geometry" />
        </mxCell>
      </root>
    </mxGraphModel>
  </diagram>
</mxfile>
